<svg width="52" height="52" viewBox="0 0 52 52" fill="none" xmlns="http://www.w3.org/2000/svg">
<g id="Layer_1">
<path id="Vector" d="M25.9964 47.913C20.4876 47.913 14.9788 47.913 9.46863 47.913C7.83101 47.913 7.20416 47.2892 7.22295 45.6266C7.2404 44.0595 7.15181 42.472 7.36121 40.9281C7.74108 38.1271 9.2646 36.0645 11.7989 34.8537C14.6848 33.4764 17.5949 32.151 20.493 30.7996C21.5386 30.3122 22.0648 28.9841 21.6259 27.9125C21.5655 27.7665 21.4058 27.6545 21.2769 27.5467C19.1963 25.8254 18.0661 23.614 17.9976 20.8798C17.9842 20.3488 17.8043 20.0103 17.4218 19.665C15.062 17.5369 14.1828 14.9774 15.2889 11.8556C15.4177 11.4925 15.4191 11.0843 15.5009 10.7021C16.1493 7.65536 18.1762 5.92449 20.9306 4.96351C24.4206 3.74726 27.9146 3.7732 31.3576 5.18874C34.9335 6.66025 36.8946 9.89675 36.6221 13.8253C36.4919 15.6982 36.155 17.5437 35.0154 19.0521C34.3805 19.8902 34.1442 20.701 34.0476 21.7289C33.8275 24.059 32.7254 25.9824 30.9321 27.4661C29.9119 28.3111 30.0958 30.1252 31.2932 30.6876C34.0516 31.9844 36.8007 33.3017 39.5846 34.5411C43.1269 36.1191 44.8209 38.8601 44.7834 42.76C44.774 43.7633 44.7834 44.7666 44.782 45.7686C44.7793 47.2496 44.1283 47.9089 42.6531 47.9103C39.2665 47.913 35.8785 47.9103 32.4919 47.9103C30.3267 47.9103 28.1616 47.9103 25.9964 47.9103V47.913ZM19.399 15.8756C19.399 17.8358 19.3171 19.7318 19.4352 21.6129C19.4889 22.4701 19.8339 23.3574 20.2285 24.1341C21.5856 26.8027 24.3481 28.2729 27.0904 27.7706C29.5052 27.3283 31.1496 25.8145 32.1643 23.584C32.6851 22.4387 32.8288 21.2293 32.7388 19.9543C32.6449 18.618 32.7174 17.2707 32.7174 15.892C30.8797 15.9466 29.5603 15.1699 28.4475 13.9891C25.5924 15.7282 22.4393 15.7186 19.3977 15.8756H19.399ZM17.8849 18.2481C17.8849 17.3417 17.8862 16.6032 17.8849 15.8661C17.8822 14.8232 18.2379 14.4887 19.2728 14.4423C20.748 14.3754 22.2272 14.3222 23.693 14.1543C25.0984 13.9946 26.4891 13.6875 27.6703 12.807C28.4878 12.1968 28.7871 12.2228 29.4448 13.0077C30.3348 14.0697 31.4368 14.6198 32.8355 14.5038C33.5778 14.4423 33.9523 14.8013 33.9724 15.5726C33.9912 16.3274 33.9764 17.0823 33.9764 17.8385C34.0436 17.844 34.1107 17.8495 34.1791 17.8549C34.7671 16.8366 35.061 15.7132 35.1953 14.5502C35.5899 11.1348 34.5067 7.76866 30.5052 6.32172C27.2569 5.14779 24.0273 5.20239 20.8339 6.47324C18.7171 7.31547 17.2258 8.77742 16.7842 11.1567C16.6741 11.7505 16.5104 12.3347 16.3641 12.9203C15.8607 14.9324 16.3976 16.6428 17.8862 18.2494L17.8849 18.2481ZM38.8705 46.5098C40.2866 46.5098 41.6303 46.5125 42.9739 46.5084C43.3954 46.5071 43.437 46.1958 43.437 45.8723C43.437 44.5864 43.484 43.2979 43.4169 42.0161C43.2692 39.1727 41.9216 37.1306 39.347 35.9512C37.943 35.3083 36.5456 34.6503 35.1443 34.0006C34.9577 33.9146 34.7684 33.8381 34.555 33.7467C33.7402 35.4079 32.967 37.0078 32.1737 38.598C31.6368 39.6737 30.7334 39.858 29.8032 39.1045C29.5589 38.9065 29.3186 38.7031 29.0502 38.4793C28.579 39.8047 28.1401 41.021 28.4247 42.4147C28.6958 43.7469 28.7857 45.1188 28.9549 46.4716H37.5349C37.5349 45.4956 37.5403 44.5632 37.5322 43.6309C37.5282 43.1381 37.6584 42.7177 38.2128 42.73C38.7591 42.7423 38.8812 43.1613 38.8732 43.6555C38.8598 44.5864 38.8692 45.5174 38.8692 46.5125L38.8705 46.5098ZM23.0608 46.4743C23.2299 45.0738 23.3118 43.6746 23.5897 42.3178C23.8716 40.9391 23.3843 39.7638 22.9669 38.467C22.642 38.7291 22.3668 38.9639 22.0796 39.1809C21.2474 39.8102 20.3547 39.6177 19.8728 38.6827C19.4957 37.9496 19.1574 37.1975 18.803 36.4536C18.3748 35.5581 17.9466 34.6626 17.4943 33.718C15.7667 34.5207 14.0942 35.2892 12.4284 36.0713C10.4217 37.0146 9.0901 38.5953 8.77197 40.7998C8.5223 42.5307 8.62968 44.3175 8.60955 46.0784C8.60821 46.219 8.85117 46.4838 8.9854 46.4866C10.3492 46.5166 11.713 46.5057 13.1331 46.5057C13.1331 45.527 13.1439 44.6151 13.1291 43.7046C13.121 43.1941 13.219 42.7314 13.807 42.7286C14.4043 42.7259 14.4889 43.2064 14.4862 43.706C14.4808 44.6165 14.4848 45.5256 14.4848 46.4743H23.0608ZM28.8421 28.7329C26.9723 29.4564 25.0313 29.4414 23.1682 28.6879C22.9816 29.5246 22.8058 30.315 22.6058 31.2091C23.6635 32.1045 24.8259 33.086 26.0099 34.0866C27.2045 33.0724 28.3629 32.0909 29.4046 31.2063C29.1992 30.3041 29.0247 29.5328 28.8435 28.7329H28.8421ZM33.3254 33.1638C32.5711 32.8075 31.8516 32.4335 31.1012 32.1359C30.8851 32.0499 30.5133 32.0991 30.3307 32.2424C29.4676 32.9181 28.6448 33.647 27.8072 34.3569C27.571 34.5575 27.3374 34.7609 27.0703 34.9902C28.3723 36.0918 29.5925 37.1238 30.8596 38.1953C31.7026 36.474 32.4999 34.8455 33.3254 33.1624V33.1638ZM24.9441 34.9848C23.7682 33.9869 22.6702 33.0519 21.5628 32.1278C21.4635 32.0445 21.2688 31.9708 21.1708 32.0145C20.3574 32.3735 19.5574 32.7611 18.7305 33.1515C19.5561 34.8756 20.3386 36.5068 21.144 38.1899C22.4353 37.1006 23.6514 36.0754 24.9454 34.9848H24.9441ZM27.5804 46.4879C27.3763 44.813 27.179 43.2023 26.975 41.5288C26.4421 41.5288 25.9535 41.5492 25.4676 41.5219C25.0984 41.5015 24.9911 41.6639 24.9629 42.0106C24.9132 42.6181 24.8125 43.22 24.7414 43.8261C24.638 44.7011 24.5414 45.5775 24.438 46.4866H27.5804V46.4879ZM25.9629 35.8802C25.3387 36.4454 24.4635 36.8808 24.2447 37.5401C24.0501 38.1298 24.579 38.9666 24.7897 39.6955C24.8018 39.7378 24.8031 39.7938 24.8313 39.817C24.9776 39.9385 25.1239 40.1337 25.285 40.1501C25.7521 40.1951 26.23 40.2006 26.6958 40.1487C26.8716 40.1296 27.1106 39.9453 27.1763 39.7788C27.7562 38.2991 27.4421 37.0646 26.234 36.0754C26.1696 36.0222 26.0971 35.9772 25.9629 35.8816V35.8802Z" fill="#fff"/>
</g>
</svg>
