<svg width="52" height="52" viewBox="0 0 52 52" fill="none" xmlns="http://www.w3.org/2000/svg">
<g id="Property 1=icon co">
<g id="Vector">
<path d="M14.5831 47.9119C13.8479 47.5894 13.5495 47.0051 13.6116 46.1829C13.6367 45.8604 13.616 45.5345 13.616 45.1697C13.1978 45.1697 12.8199 45.1708 12.443 45.1697C11.5173 45.1651 11.0044 44.6322 11.0044 43.6614C11.0022 38.3268 11.0022 32.9922 11.0076 27.6564C11.0076 27.3603 10.9771 27.1293 10.7299 26.9189C10.4043 26.641 10.3477 26.2224 10.3477 25.7913C10.352 22.2818 10.3498 18.7734 10.3498 15.2639C10.3498 12.9677 10.3498 10.6703 10.3498 8.37412C10.3498 7.34723 10.8486 6.83035 11.8342 6.82806C12.2143 6.82806 12.5944 6.82806 13.0006 6.82806C13.0398 6.7057 13.0791 6.58906 13.1139 6.47242C13.543 5.05672 14.7737 4.09501 16.1709 4.087C17.578 4.079 18.8196 5.00869 19.2465 6.43011C19.3401 6.74344 19.4621 6.8395 19.7758 6.83721C22.6422 6.82234 25.5087 6.83263 28.3751 6.82463C28.8793 6.82349 29.3019 6.95271 29.6428 7.37124C29.7256 7.47301 29.9238 7.50732 30.0697 7.50732C32.5561 7.51533 35.0413 7.51189 37.5277 7.51304C38.5362 7.51304 39.0273 8.02992 39.0306 9.08655C39.0306 9.45591 39.0306 9.82527 39.0306 10.2564C39.402 10.2564 39.7494 10.2564 40.0957 10.2564C41.1619 10.2575 41.6422 10.7573 41.6422 11.8699C41.6422 23.3099 41.6378 34.7498 41.652 46.1897C41.652 47.0131 41.4081 47.5963 40.6697 47.913L14.5831 47.9119ZM40.3963 46.6094V11.5692H39.0295C39.0295 11.7819 39.0339 11.966 39.0295 12.1501C39.0164 12.6269 38.7975 12.9002 38.4273 12.9094C38.0406 12.9185 37.8108 12.6372 37.8087 12.1352C37.8043 11.1792 37.8087 10.2232 37.8065 9.26837C37.8065 9.11856 37.7945 8.96762 37.788 8.82239H29.8802C29.8802 9.02708 29.8802 9.20776 29.8802 9.38958C29.8802 13.6264 29.8802 17.8632 29.8802 22.1C29.8802 23.327 29.8835 24.554 29.8802 25.7799C29.8769 26.8102 29.3847 27.3214 28.3969 27.3328C28.2749 27.334 28.1518 27.3328 28.0299 27.3328C22.9493 27.3328 17.8677 27.3328 12.7872 27.3328C12.6151 27.3328 12.443 27.3328 12.2503 27.3328V43.8603H31.9277C31.9277 43.6797 31.9277 43.5253 31.9277 43.3721C31.9277 41.9747 31.9244 40.5761 31.9287 39.1787C31.932 38.241 32.4265 37.7207 33.313 37.7184C34.658 37.715 36.003 37.7184 37.348 37.7184C37.4917 37.7184 37.6344 37.7184 37.8087 37.7184V37.1466C37.8087 29.9149 37.8087 22.6821 37.8087 15.4503C37.8087 15.2937 37.801 15.1359 37.8152 14.9803C37.8468 14.6098 38.0624 14.404 38.4 14.3903C38.7235 14.3765 38.9369 14.5778 39.0099 14.9083C39.0426 15.0581 39.0317 15.2205 39.0317 15.3771C39.0317 22.7518 39.0284 30.1265 39.0382 37.5023C39.0382 38.2639 38.8041 38.8757 38.2868 39.4108C36.7 41.053 35.123 42.7054 33.5602 44.3738C33.0407 44.9284 32.4548 45.1846 31.7109 45.1834C26.2634 45.1697 20.8158 45.1766 15.3672 45.1766H14.8684V46.6163H40.3985L40.3963 46.6094ZM28.631 8.11225H28.1279C24.2421 8.11225 20.3562 8.11225 16.4715 8.11225C15.8823 8.11225 15.5894 7.90298 15.5828 7.48102C15.5763 7.05677 15.8791 6.8292 16.4552 6.82806C16.9888 6.82806 17.5236 6.82806 18.0757 6.82806C17.7359 5.81717 16.8473 5.24198 15.9204 5.3872C14.9359 5.54044 14.2019 6.38437 14.1932 7.45472C14.1747 9.75094 14.1736 12.0483 14.1932 14.3445C14.2041 15.5372 15.0906 16.4281 16.1993 16.4269C17.3101 16.4269 18.1639 15.5361 18.1857 14.3331C18.201 13.4629 18.1933 12.5926 18.189 11.7224C18.1857 11.1849 17.908 10.851 17.4909 10.859C17.077 10.867 16.8091 11.2067 16.8015 11.7453C16.7961 12.1306 16.807 12.516 16.7972 12.9002C16.7874 13.3233 16.5717 13.5749 16.2265 13.5932C15.8638 13.6115 15.5981 13.3554 15.5839 12.9254C15.5676 12.4417 15.5556 11.9534 15.5894 11.4708C15.6678 10.3696 16.5227 9.55196 17.5366 9.57255C18.5811 9.59428 19.3913 10.4519 19.4088 11.5875C19.424 12.5435 19.4284 13.4995 19.4022 14.4543C19.3695 15.6745 18.825 16.611 17.8394 17.2388C15.7048 18.5962 13.0072 16.985 12.9701 14.3217C12.9429 12.4108 12.9647 10.4988 12.9636 8.58682C12.9636 8.43702 12.9636 8.28721 12.9636 8.13741H11.5957V26.0143H28.6321L28.631 8.11225ZM33.1616 42.7374C34.341 41.4989 35.5445 40.2353 36.6891 39.0346H33.1616V42.7374Z" fill="#fff"/>
<path d="M27.3134 32.9123C29.6092 32.9123 31.9049 32.9111 34.2007 32.9146C34.3761 32.9146 34.5939 32.8826 34.7148 32.9763C34.8814 33.1055 35.0785 33.3434 35.072 33.5287C35.0654 33.7345 34.8781 33.9746 34.7082 34.1199C34.5939 34.2171 34.3717 34.1942 34.1974 34.1942C29.6059 34.1976 25.0144 34.1965 20.4228 34.1965C20.3553 34.1965 20.2867 34.1988 20.2192 34.1965C19.7792 34.1759 19.5037 33.9266 19.5047 33.5481C19.5047 33.1673 19.7759 32.9169 20.2235 32.9169C22.5868 32.9123 24.9512 32.9146 27.3145 32.9146L27.3134 32.9123Z" fill="#fff"/>
<path d="M27.2989 29.4805C29.5805 29.4805 31.8632 29.4805 34.1449 29.4805C34.2941 29.4805 34.4454 29.476 34.5925 29.4988C34.9072 29.5469 35.076 29.7699 35.0934 30.082C35.1109 30.3965 34.9595 30.6367 34.6556 30.7178C34.501 30.759 34.3333 30.7624 34.1721 30.7624C29.5947 30.7647 25.0162 30.7647 20.4389 30.7636C20.3572 30.7636 20.2755 30.767 20.1949 30.7613C19.7636 30.7339 19.4881 30.464 19.5055 30.0866C19.5219 29.7218 19.7821 29.4828 20.2091 29.4828C22.5724 29.4782 24.9356 29.4805 27.2989 29.4805Z" fill="#fff"/>
<path d="M24.7073 36.3418C26.1863 36.3418 27.6653 36.344 29.1453 36.3406C29.5145 36.3406 29.7868 36.4687 29.8554 36.8827C29.9229 37.2875 29.6485 37.6042 29.2074 37.6214C28.8142 37.6362 28.42 37.6259 28.0268 37.6259C25.5024 37.6259 22.979 37.6259 20.4545 37.6259C20.3456 37.6259 20.2367 37.6328 20.1289 37.6225C19.7531 37.5882 19.4994 37.3195 19.5048 36.9684C19.5103 36.6128 19.7618 36.3509 20.1485 36.3475C21.3421 36.3372 22.5368 36.3429 23.7315 36.3418C24.0572 36.3418 24.3817 36.3418 24.7073 36.3418Z" fill="#fff"/>
<path d="M16.1957 36.3452C16.4124 36.3452 16.6302 36.3349 16.8458 36.3475C17.2129 36.3703 17.4416 36.6071 17.447 36.9593C17.4514 37.3321 17.2553 37.5756 16.9232 37.6031C16.4385 37.6442 15.9463 37.642 15.4627 37.6031C15.1262 37.5756 14.9225 37.3149 14.9389 36.9558C14.9541 36.6048 15.1523 36.3749 15.5052 36.3509C15.735 36.336 15.9659 36.3475 16.1957 36.3475V36.3452Z" fill="#fff"/>
<path d="M33.8493 14.2795C33.6184 14.2795 33.3875 14.2932 33.1588 14.2761C32.8125 14.2509 32.6099 14.0451 32.5903 13.678C32.5707 13.3064 32.7668 13.0548 33.1 13.025C33.5836 12.9816 34.0758 12.9839 34.5605 13.0205C34.8981 13.0456 35.0898 13.2995 35.0996 13.6586C35.1094 13.9993 34.8545 14.2555 34.4995 14.2772C34.2838 14.2909 34.066 14.2795 33.8493 14.2795Z" fill="#fff"/>
<path d="M33.8223 17.709C33.6056 17.709 33.3888 17.7181 33.1721 17.7067C32.8454 17.6895 32.6374 17.5089 32.596 17.1646C32.5524 16.8021 32.7125 16.5071 33.0501 16.474C33.5718 16.4214 34.1044 16.4271 34.6271 16.474C34.9462 16.5025 35.1205 16.7839 35.0954 17.1201C35.0693 17.4711 34.8678 17.693 34.5128 17.709C34.283 17.7193 34.0521 17.7113 33.8223 17.7113V17.709Z" fill="#fff"/>
<path d="M16.2141 32.9203C16.4439 32.9203 16.6759 32.9031 16.9046 32.9249C17.2324 32.9557 17.4208 33.1627 17.4415 33.5081C17.4622 33.8546 17.2966 34.1256 16.9775 34.153C16.4548 34.1988 15.9233 34.1976 15.4005 34.1507C15.0793 34.1221 14.9116 33.8363 14.9355 33.5024C14.9606 33.173 15.149 32.9477 15.4833 32.9226C15.7262 32.9054 15.9712 32.9203 16.2141 32.9203Z" fill="#fff"/>
<path d="M33.8331 21.1384C33.6033 21.1384 33.3713 21.1556 33.1426 21.135C32.7963 21.1041 32.6003 20.8914 32.5894 20.5232C32.5796 20.1756 32.756 19.9217 33.0773 19.8977C33.588 19.8588 34.1054 19.8588 34.6161 19.9011C34.9396 19.9286 35.1117 20.203 35.0953 20.5381C35.079 20.8686 34.8971 21.1007 34.5628 21.1316C34.321 21.1533 34.076 21.1362 33.832 21.1362C33.832 21.1362 33.832 21.1384 33.832 21.1396L33.8331 21.1384Z" fill="#fff"/>
<path d="M16.213 29.4897C16.4427 29.4897 16.6747 29.4737 16.9034 29.4931C17.2312 29.5217 17.4251 29.7252 17.4447 30.0717C17.4654 30.4365 17.29 30.703 16.947 30.7304C16.4493 30.7704 15.945 30.7716 15.4484 30.7327C15.1054 30.7064 14.917 30.4308 14.9398 30.0763C14.9627 29.7264 15.1696 29.5045 15.5225 29.4874C15.7523 29.4771 15.9832 29.4851 16.213 29.4851C16.213 29.4863 16.213 29.4885 16.213 29.4897Z" fill="#fff"/>
<path d="M33.8654 23.3112C34.0952 23.3112 34.3271 23.2906 34.5548 23.3157C34.9011 23.3546 35.0993 23.5913 35.0949 23.947C35.0906 24.3003 34.8946 24.5473 34.5439 24.5633C34.0712 24.5862 33.5964 24.5885 33.1237 24.5599C32.7774 24.5393 32.5879 24.3026 32.589 23.9344C32.5901 23.5627 32.7937 23.3512 33.1346 23.3134C33.3753 23.2871 33.6214 23.3077 33.8654 23.3077C33.8654 23.3077 33.8654 23.31 33.8654 23.3112Z" fill="#fff"/>
<path d="M20.0825 21.1487C18.4532 21.1487 16.825 21.1487 15.1958 21.1487C15.0466 21.1487 14.8571 21.1922 14.758 21.1133C14.5696 20.9646 14.3202 20.7508 14.3082 20.5495C14.2962 20.3483 14.5227 20.1115 14.6839 19.9274C14.7471 19.8554 14.9148 19.868 15.0357 19.868C18.4151 19.8657 21.7945 19.8645 25.1739 19.868C25.3078 19.868 25.4505 19.8794 25.5725 19.9297C25.8447 20.0406 26.0081 20.2876 25.9221 20.569C25.8578 20.7794 25.6683 20.9772 25.4864 21.1087C25.3721 21.191 25.1706 21.1476 25.0083 21.1476C23.366 21.1499 21.7248 21.1487 20.0825 21.1487Z" fill="#fff"/>
<path d="M23.6654 14.2829C23.1633 14.2829 22.6613 14.2887 22.1592 14.2818C21.7377 14.2761 21.4807 14.0394 21.4709 13.6666C21.4611 13.2846 21.7345 13.0079 22.1668 13.0045C23.1982 12.9953 24.2295 12.9942 25.2609 13.0045C25.6965 13.009 25.9579 13.2823 25.9438 13.6746C25.9296 14.0554 25.6856 14.2772 25.2533 14.2829C24.724 14.2898 24.1947 14.2829 23.6654 14.2829Z" fill="#fff"/>
<path d="M23.6968 17.7113C23.1817 17.7113 22.6654 17.717 22.1503 17.709C21.731 17.7021 21.4751 17.4585 21.4707 17.0857C21.4664 16.7175 21.7256 16.4396 22.1351 16.4339C23.1795 16.4202 24.225 16.4213 25.2694 16.4328C25.6898 16.4374 25.9414 16.6958 25.9446 17.0697C25.949 17.4665 25.6952 17.7044 25.2444 17.7101C24.7292 17.717 24.2119 17.7113 23.6968 17.7113Z" fill="#fff"/>
</g>
</g>
</svg>
