<svg width="52" height="52" viewBox="0 0 52 52" fill="none" xmlns="http://www.w3.org/2000/svg">
<g id="Nhan vien-01">
<g id="Vector">
<path d="M5.75536 46.7652C5.33797 46.5565 5.12927 46.1391 5.23362 45.6174C5.33797 39.6696 9.82493 34.3478 15.7728 33.4087C17.2336 33.2 18.6945 33.3043 20.1554 33.2C20.6771 33.2 21.1988 32.887 21.7206 32.6783C21.9293 32.5739 21.8249 31.113 21.6162 31.0087C21.5119 31.0087 21.5119 30.9043 21.4075 30.9043C19.8423 29.9652 18.6945 28.6087 17.9641 26.8348C17.8597 26.5217 17.651 26.5217 17.4423 26.5217C16.3988 26.5217 15.3554 26.4174 14.4162 25.8956C11.3901 24.2261 11.0771 19.9478 13.8945 17.8609C14.1032 17.6522 14.2075 17.4435 14.2075 17.2348C14.3119 12.1217 16.7119 8.46956 21.3032 6.27826C28.0858 3.14783 36.3293 7.53043 37.6858 14.9391C37.7901 15.7739 37.7901 16.6087 37.8945 17.4435C37.8945 17.6522 37.9988 17.7565 38.1032 17.8609C39.6684 19.113 40.3988 20.7826 39.9814 22.7652C39.5641 24.7478 38.2075 26 36.2249 26.4174C35.7032 26.5217 35.0771 26.5217 34.5554 26.5217C34.2423 26.5217 34.138 26.6261 34.0336 26.8348C33.3032 28.6087 32.1554 29.9652 30.4858 30.9043C30.2771 31.0087 30.1728 31.2174 30.1728 31.4261V31.5304C30.1728 31.9478 30.1728 32.2609 30.2771 32.6783C30.7988 32.887 31.3206 33.2 31.9467 33.2C33.6162 33.2 35.2858 33.0956 36.9554 33.513C42.1728 34.7652 46.138 39.2522 46.6597 44.6783C46.6597 44.7826 46.6597 44.887 46.7641 44.9913C46.7641 45.6174 46.7641 46.1391 46.7641 46.7652C41.0249 46.7652 35.1814 46.7652 29.4423 46.7652C28.9206 46.3478 28.7119 46.0348 29.0249 45.513C29.2336 45.2 29.5467 45.0956 29.9641 45.0956C34.8684 45.0956 39.7728 45.0956 44.6771 45.0956C44.8858 45.0956 44.9901 45.0956 45.1988 45.0956C44.7814 38.9391 39.4597 34.7652 34.6597 34.7652C34.5554 35.0783 34.5554 35.287 34.3467 35.4956C33.0945 37.2696 31.9467 39.1478 30.6945 40.9217C30.1728 41.6522 29.7554 41.6522 29.2336 41.1304C28.2945 40.1913 27.3554 39.2522 26.4162 38.2087C26.3119 38.1043 26.3119 37.8956 26.2075 37.7913C24.9554 39.0435 23.9119 40.087 22.8684 41.1304C22.2423 41.7565 21.8249 41.6522 21.3032 41.0261C20.1554 39.3565 19.0075 37.687 17.8597 36.0174C17.651 35.7043 17.5467 35.287 17.338 34.9739C11.5988 35.0783 7.00754 40.1913 6.90319 45.3043C7.11188 45.3043 7.21623 45.3043 7.42493 45.3043C12.3293 45.3043 17.1293 45.3043 22.0336 45.3043C22.138 45.3043 22.3467 45.3043 22.451 45.3043C22.8684 45.3043 23.0771 45.513 23.1814 45.9304C23.2858 46.2435 23.1814 46.5565 22.8684 46.7652C22.7641 46.8696 22.7641 46.8696 22.6597 46.9739C17.0249 46.7652 11.3901 46.7652 5.75536 46.7652ZM18.9032 19.4261C18.9032 20.7826 18.7988 22.1391 18.9032 23.6C19.0075 26.6261 20.4684 28.8174 23.2858 29.9652C25.9988 31.113 28.5032 30.5913 30.7988 28.713C31.2162 28.2956 31.6336 27.8783 32.051 27.3565C32.051 27.3565 32.051 27.2522 31.9467 27.2522C31.0075 27.2522 30.1728 27.2522 29.2336 27.2522C29.0249 27.2522 28.8162 27.3565 28.7119 27.5652C28.2945 28.4 27.5641 28.9217 26.5206 28.9217C26.1032 28.9217 25.6858 28.9217 25.3728 28.9217C24.1206 28.9217 23.0771 27.7739 22.9728 26.5217C22.9728 25.1652 24.0162 24.1217 25.3728 24.0174C25.6858 24.0174 25.9988 24.0174 26.4162 24.0174C27.4597 24.0174 28.2945 24.4348 28.8162 25.3739C28.9206 25.4783 29.0249 25.5826 29.1293 25.5826C30.2771 25.5826 31.3206 25.5826 32.4684 25.5826C32.6771 25.5826 32.7814 25.4783 32.7814 25.2696C32.8858 24.9565 32.9901 24.5391 32.9901 24.2261C32.9901 22.7652 32.9901 21.2 33.0945 19.7391C33.0945 19.4261 32.8858 19.4261 32.6771 19.4261C31.1119 19.2174 29.5467 18.5913 28.2945 17.7565C28.0858 17.6522 27.8771 17.6522 27.6684 17.7565C26.1032 18.8 24.3293 19.4261 22.3467 19.5304C21.3032 19.5304 20.1554 19.4261 18.9032 19.4261ZM33.0945 17.8609C33.0945 17.2348 33.0945 16.6087 32.9901 16.087C32.4684 12.4348 29.0249 9.82609 25.4771 10.1391C21.7206 10.4522 18.9032 13.5826 19.0075 17.3391C19.0075 17.5478 19.1119 17.6522 19.3206 17.7565C20.6771 18.0696 22.138 18.0696 23.4945 17.8609C24.9554 17.5478 26.3119 17.0261 27.4597 16.087C27.9814 15.6696 28.2945 15.6696 28.8162 16.087C28.9206 16.1913 29.0249 16.1913 29.1293 16.2957C30.1728 17.1304 31.5293 17.6522 33.0945 17.8609ZM36.2249 16.9217C36.3293 14.1043 34.7641 10.2435 31.2162 8.26087C27.4597 6.17391 23.5988 6.27826 20.051 8.78261C17.338 10.7652 15.9814 13.4783 15.7728 16.9217C16.2945 16.9217 16.8162 16.8174 17.2336 16.8174C17.4423 11.7043 22.0336 8.36522 26.2075 8.46956C30.5901 8.57391 34.5554 12.1217 34.7641 16.8174C35.1814 16.9217 35.7032 16.9217 36.2249 16.9217ZM17.2336 18.5913C16.0858 18.3826 14.7293 18.9043 13.9988 19.9478C13.2684 21.0957 13.3728 22.5565 14.1032 23.6C14.8336 24.5391 16.1901 25.0609 17.1293 24.8522C17.2336 22.6609 17.2336 20.5739 17.2336 18.5913ZM34.7641 24.8522C36.2249 24.9565 37.3728 24.4348 37.9988 23.287C38.6249 22.1391 38.6249 20.887 37.7901 19.8435C37.0597 18.8 36.0162 18.487 34.7641 18.5913C34.7641 20.6783 34.7641 22.7652 34.7641 24.8522ZM29.7554 39.3565C30.6945 38 31.5293 36.7478 32.4684 35.3913C31.5293 34.9739 30.6945 34.5565 29.8597 34.2435C29.7554 34.2435 29.651 34.2435 29.5467 34.3478C29.0249 34.8696 28.5032 35.3913 27.9814 35.913C27.6684 36.2261 27.3554 36.4348 27.1467 36.6435C28.0858 37.687 28.9206 38.5217 29.7554 39.3565ZM24.7467 36.8522C23.9119 36.0174 22.9728 35.0783 22.138 34.2435C21.3032 34.6609 20.3641 35.0783 19.4249 35.3913C20.3641 36.7478 21.1988 38.1043 22.138 39.3565C23.0771 38.5217 23.9119 37.687 24.7467 36.8522ZM28.6075 31.7391C26.8336 32.2609 25.1641 32.2609 23.3901 31.7391C23.3901 32.1565 23.3901 32.4696 23.3901 32.7826C23.3901 32.887 23.3901 33.0956 23.4945 33.2C24.3293 34.0348 25.1641 34.8696 25.9988 35.7043C26.8336 34.8696 27.6684 34.0348 28.5032 33.2C28.5032 33.2 28.6075 33.0956 28.6075 32.9913C28.6075 32.5739 28.6075 32.1565 28.6075 31.7391ZM25.9988 27.2522C26.2075 27.2522 26.4162 27.2522 26.6249 27.2522C27.0423 27.2522 27.3554 26.8348 27.3554 26.4174C27.3554 26 27.0423 25.5826 26.6249 25.5826C26.2075 25.5826 25.7901 25.5826 25.3728 25.5826C24.9554 25.5826 24.6423 26 24.6423 26.4174C24.6423 26.8348 24.9554 27.1478 25.3728 27.2522C25.5814 27.2522 25.7901 27.2522 25.9988 27.2522Z" fill="#fff"/>
<path d="M25.7901 46.7652C25.6858 46.7652 25.6858 46.6609 25.5814 46.6609C25.2684 46.4522 25.1641 46.1391 25.2684 45.7217C25.3728 45.3043 25.6858 45.0956 26.1032 45.2C26.5206 45.2 26.7293 45.4087 26.8336 45.7217C26.938 46.1391 26.8336 46.4522 26.5206 46.6609C26.4162 46.6609 26.4162 46.7652 26.3119 46.7652C26.1032 46.7652 25.8945 46.7652 25.7901 46.7652Z" fill="#fff"/>
</g>
</g>
</svg>
