<svg width="52" height="52" viewBox="0 0 52 52" fill="none" xmlns="http://www.w3.org/2000/svg">
<g id="NVL-01">
<path id="Vector" d="M7.42716 30.0696C6.17499 29.4435 5.02716 28.8174 3.87933 28.2957C3.3576 28.087 3.04455 27.6696 3.1489 27.0435C3.1489 26.2087 3.1489 25.4783 3.1489 24.6435C3.1489 24.2261 3.3576 23.913 3.77499 23.7043C4.81846 23.1826 5.86194 22.6609 6.90542 22.1391C7.00977 22.0348 7.21846 22.0348 7.42716 21.8261C7.21846 21.8261 7.00977 21.7217 6.90542 21.7217C5.86194 21.2 4.81846 20.6783 3.77499 20.1565C3.46194 20.0522 3.25325 19.8435 3.25325 19.4261C3.25325 19.0087 3.46194 18.8 3.77499 18.6957C11.0793 15.0435 18.2793 11.3913 25.5837 7.73913C26.0011 7.53044 26.3141 7.63478 26.7315 7.84348C33.5141 11.287 40.2967 14.6261 47.1837 18.0696C47.6011 18.2783 48.0185 18.487 48.4359 18.6957C48.6446 18.8 48.8532 19.113 48.9576 19.4261C49.0619 19.7391 48.7489 20.0522 48.4359 20.1565C47.3924 20.6783 46.3489 21.2 45.3054 21.7217C45.2011 21.8261 44.9924 21.8261 44.7837 22.0348C44.9924 22.1391 45.0967 22.2435 45.2011 22.3478C46.2446 22.8696 47.288 23.3913 48.3315 23.913C48.7489 24.1217 48.9576 24.4348 48.9576 24.8522C48.9576 25.687 48.9576 26.5217 48.9576 27.3565C48.9576 27.8783 48.7489 28.087 48.3315 28.2957C47.1837 28.8174 45.9315 29.4435 44.7837 30.0696C44.9924 30.1739 45.0967 30.2783 45.2011 30.2783C46.2446 30.8 47.288 31.3217 48.3315 31.8435C48.6446 32.0522 49.0619 32.1565 49.0619 32.6783C49.0619 33.0957 48.7489 33.3043 48.4359 33.513C42.175 36.6435 35.9141 39.7739 29.6532 42.9043C28.7141 43.4261 27.775 43.8435 26.8359 44.3652C26.5228 44.5739 26.2098 44.5739 25.8967 44.3652C18.5924 40.713 11.3924 37.0609 4.08803 33.4087C3.77499 33.3043 3.46194 32.9913 3.56629 32.6783C3.67064 32.4696 3.87933 32.1565 4.08803 31.9478C4.92281 31.3217 6.07064 30.6957 7.42716 30.0696ZM5.65325 19.3217C5.86194 19.4261 5.96629 19.5304 6.07064 19.5304C12.6446 22.7652 19.1141 26.1043 25.688 29.3391C25.8967 29.4435 26.1054 29.4435 26.4185 29.3391C32.9924 26.1043 39.4619 22.7652 46.0359 19.5304C46.1402 19.4261 46.2445 19.4261 46.4532 19.3217C46.2445 19.2174 46.1402 19.113 46.0359 19.113C39.4619 15.8783 32.888 12.5391 26.4185 9.30435C26.1054 9.2 25.8967 9.2 25.688 9.30435C19.2185 12.5391 12.6446 15.7739 6.17499 19.113C5.96629 19.2174 5.7576 19.2174 5.65325 19.3217ZM5.5489 24.5391C5.7576 24.6435 5.86194 24.7478 5.96629 24.7478C12.5402 27.9826 19.1141 31.3217 25.688 34.5565C25.8967 34.6609 26.1054 34.6609 26.3141 34.5565C32.888 31.3217 39.4619 27.9826 46.0359 24.7478C46.1402 24.6435 46.2445 24.6435 46.4532 24.5391C45.4098 24.0174 44.3663 23.4957 43.4272 22.9739C43.1141 22.7652 42.9054 22.8696 42.5924 22.9739C37.375 25.5826 32.2619 28.1913 27.0446 30.8C26.3141 31.2174 25.7924 31.113 25.0619 30.8C19.8446 28.1913 14.7315 25.5826 9.51412 22.9739C9.30542 22.8696 9.09673 22.7652 8.99238 22.8696C7.84455 23.3913 6.80107 23.913 5.5489 24.5391ZM46.4532 32.5739C45.4098 32.0522 44.3663 31.5304 43.4272 31.113C43.0098 30.9043 42.8011 30.9043 42.3837 31.113C37.1663 33.7217 31.8446 36.3304 26.6272 39.0435C26.2098 39.2522 25.7924 39.2522 25.2706 39.0435C19.9489 36.3304 14.6272 33.7217 9.30542 31.0087C9.09673 30.9043 8.88803 30.9043 8.67933 31.0087C7.9489 31.4261 7.21846 31.7391 6.48803 32.0522C6.17499 32.1565 5.86194 32.3652 5.5489 32.5739C5.7576 32.6783 5.86194 32.7826 5.96629 32.7826C12.5402 36.0174 19.0098 39.3565 25.5837 42.5913C25.8967 42.6957 26.0011 42.6957 26.3141 42.5913C30.3837 40.5043 34.5576 38.5217 38.6272 36.4348C41.2359 35.1826 43.7402 33.9304 46.4532 32.5739ZM25.2706 37.2696C25.2706 37.0609 25.2706 36.8522 25.2706 36.7478C25.375 36.1217 25.1663 35.913 24.6446 35.6C18.0706 32.4696 11.6011 29.2348 5.13151 26C5.02716 25.8957 4.81846 25.8957 4.60977 25.7913C4.60977 26.1043 4.60977 26.313 4.60977 26.5217C4.60977 26.8348 4.71412 27.0435 5.13151 27.2522C10.975 30.1739 16.7141 33.0957 22.5576 35.913C23.4967 36.4348 24.3315 36.8522 25.2706 37.2696ZM26.7315 37.2696C26.9402 37.1652 27.0446 37.1652 27.1489 37.0609C30.2793 35.4956 33.5141 33.9304 36.6446 32.3652C40.088 30.6957 43.5315 28.9217 46.8706 27.2522C46.975 27.1478 47.1837 27.0435 47.1837 26.9391C47.1837 26.6261 47.1837 26.2087 47.1837 25.7913C46.975 25.8957 46.8706 26 46.6619 26C40.2967 29.2348 33.8272 32.3652 27.4619 35.6C26.5228 36.1217 26.5228 36.1217 26.5228 37.1652C26.7315 37.1652 26.7315 37.1652 26.7315 37.2696Z" fill="#fff"/>
</g>
</svg>
