<svg width="52" height="52" viewBox="0 0 52 52" fill="none" xmlns="http://www.w3.org/2000/svg">
<g id="SP-01">
<path id="Vector" d="M4.40234 26C4.40234 22.7652 4.40234 19.4261 4.40234 16.1913C4.40234 15.4609 4.61104 15.0435 5.34147 14.7304C12.0197 11.3913 18.5936 8.15652 25.2719 4.81739C25.7936 4.50435 26.3154 4.50435 26.8371 4.81739C33.411 8.15652 40.0893 11.4957 46.7676 14.7304C47.3937 15.0435 47.7067 15.4609 47.7067 16.1913C47.7067 22.7652 47.7067 29.3391 47.7067 35.913C47.7067 36.6435 47.3937 37.0609 46.7676 37.4783C40.1936 40.8174 33.5154 44.0522 26.9415 47.3913C26.4197 47.7043 25.898 47.7043 25.3763 47.3913C18.698 44.0522 12.0197 40.713 5.34147 37.3739C4.81973 37.0609 4.50669 36.7478 4.50669 36.1217C4.40234 32.6783 4.40234 29.3391 4.40234 26ZM6.38495 17.3391C6.38495 17.4435 6.38495 17.5478 6.38495 17.5478C6.38495 23.4957 6.38495 29.4435 6.38495 35.3913C6.38495 35.7043 6.4893 35.8087 6.80234 35.913C12.7502 38.8348 18.698 41.8609 24.6458 44.7826C24.7502 44.887 24.8545 44.887 25.0632 44.9913C25.0632 44.7826 25.0632 44.6783 25.0632 44.5739C25.0632 38.7304 25.0632 32.887 25.0632 27.0435C25.0632 26.7304 24.9589 26.6261 24.7502 26.4174C18.8023 23.4957 12.8545 20.4696 6.90669 17.5478C6.698 17.4435 6.59365 17.4435 6.38495 17.3391ZM26.9415 44.9913C27.1502 44.887 27.2545 44.887 27.4632 44.7826C33.411 41.8609 39.2545 38.8348 45.2023 35.913C45.5154 35.8087 45.6197 35.6 45.6197 35.287C45.6197 29.4435 45.6197 23.7043 45.6197 17.8609C45.6197 17.7565 45.6197 17.5478 45.6197 17.3391C45.5154 17.4435 45.3067 17.4435 45.2023 17.5478C43.9502 18.1739 42.8023 18.8 41.5502 19.3217C41.2371 19.4261 41.1328 19.6348 41.1328 19.9478C41.1328 22.3478 41.1328 24.8522 41.1328 27.2522C41.1328 28.087 41.1328 28.8174 41.1328 29.6522C41.1328 30.0696 40.9241 30.3826 40.611 30.5913C40.1936 30.8 39.8806 30.6957 39.5676 30.487C39.2545 30.2783 39.0458 30.0696 38.7328 29.9652C38.1067 29.5478 37.585 29.1304 36.9589 28.713C36.7502 29.0261 36.5415 29.2348 36.4371 29.5478C35.3936 31.113 34.2458 32.6783 33.2023 34.2435C32.785 34.7652 32.2632 34.9739 31.7415 34.6609C31.4284 34.4522 31.3241 34.0348 31.3241 33.6174C31.3241 30.8 31.3241 27.9826 31.3241 25.1652C31.3241 24.9565 31.3241 24.8522 31.3241 24.6435C29.9676 25.2696 28.7154 26 27.3589 26.6261C27.0458 26.8348 26.9415 27.0435 26.9415 27.3565C26.9415 33.0957 26.9415 38.9391 26.9415 44.6783C26.9415 44.5739 26.9415 44.7826 26.9415 44.9913ZM14.211 12.3304C14.3154 12.4348 14.4197 12.4348 14.4197 12.4348C20.3676 15.4609 26.3154 18.3826 32.2632 21.4087C32.3676 21.513 32.6806 21.513 32.8893 21.4087C34.5589 20.5739 36.2284 19.7391 37.898 18.9044C38.0023 18.9044 38.1067 18.8 38.211 18.6957C38.1067 18.5913 38.0023 18.5913 38.0023 18.5913C32.0545 15.5652 26.1067 12.6435 20.1589 9.61739C20.0545 9.51305 19.7415 9.51305 19.5328 9.61739C17.8632 10.4522 16.1936 11.287 14.5241 12.1217C14.5241 12.2261 14.4197 12.3304 14.211 12.3304ZM7.63713 15.6696C7.74147 15.7739 7.84582 15.7739 7.84582 15.7739C13.7936 18.8 19.7415 21.7217 25.7936 24.7478C25.898 24.8522 26.211 24.7478 26.3154 24.7478C27.5676 24.1217 28.8197 23.4957 30.0719 22.8696C30.1763 22.8696 30.2806 22.7652 30.385 22.6609C30.1763 22.5565 30.0719 22.4522 29.8632 22.3478C28.5067 21.6174 27.1502 20.9913 25.7936 20.2609C21.3067 18.0696 16.8197 15.7739 12.3328 13.5826C12.2284 13.4783 11.9154 13.4783 11.811 13.4783C10.4545 14.2087 9.098 14.9391 7.63713 15.6696ZM44.3676 15.6696C44.0545 15.5652 43.9502 15.4609 43.7415 15.3565C38.5241 12.7478 33.2023 10.0348 27.8806 7.42609C27.2545 7.11305 26.6284 6.59131 26.1067 6.59131C25.4806 6.59131 24.8545 7.11305 24.2284 7.42609C23.498 7.73913 22.8719 8.15652 22.1415 8.46957C22.2458 8.57392 22.2458 8.57392 22.2458 8.57392C28.298 11.6 34.2458 14.6261 40.298 17.5478C40.4023 17.6522 40.611 17.6522 40.7154 17.5478C41.8632 17.0261 43.1154 16.4 44.3676 15.6696ZM33.411 30.3826C33.6197 30.1739 33.6197 30.0696 33.7241 29.9652C34.4545 28.9217 35.185 27.8783 35.9154 26.8348C36.4371 26.1043 36.9589 26 37.6893 26.5217C38.211 26.9391 38.7328 27.2522 39.3589 27.6696C39.3589 25.2696 39.3589 22.8696 39.3589 20.4696H39.2545C37.3763 21.4087 35.498 22.3478 33.6197 23.287C33.5154 23.287 33.411 23.4957 33.411 23.6C33.411 25.8957 33.411 28.087 33.411 30.3826Z" fill="#fff"/>
</g>
</svg>
