<svg width="16" height="12" viewBox="0 0 14 12" fill="none" xmlns="http://www.w3.org/2000/svg">
<g id="Group 15">
<path id="Rectangle 24" d="M7.75 1.5C7.75 0.671573 8.42157 0 9.25 0H12.25C13.0784 0 13.75 0.671573 13.75 1.5V5.25C13.75 6.07843 13.0784 6.75 12.25 6.75H9.25C8.42157 6.75 7.75 6.07843 7.75 5.25V1.5Z" fill="#FAFAFA"/>
<path id="Rectangle 24 (Stroke)" fill-rule="evenodd" clip-rule="evenodd" d="M12.25 1.5H9.25V5.25H12.25V1.5ZM9.25 0C8.42157 0 7.75 0.671573 7.75 1.5V5.25C7.75 6.07843 8.42157 6.75 9.25 6.75H12.25C13.0784 6.75 13.75 6.07843 13.75 5.25V1.5C13.75 0.671573 13.0784 0 12.25 0H9.25Z" fill="#FAFAFA"/>
<path id="Vector 54 (Stroke)" fill-rule="evenodd" clip-rule="evenodd" d="M0.25 0.75C0.25 0.335786 0.585786 -2.93554e-08 1 -6.55671e-08L6.25 -5.24537e-07C6.66421 -5.60748e-07 7 0.335786 7 0.749999C7 1.16421 6.66421 1.5 6.25 1.5L1 1.5C0.585787 1.5 0.25 1.16421 0.25 0.75Z" fill="#FAFAFA"/>
<path id="Vector 55 (Stroke)" fill-rule="evenodd" clip-rule="evenodd" d="M0.25 3.75C0.25 3.33579 0.585786 3 1 3L6.25 3C6.66421 3 7 3.33579 7 3.75C7 4.16421 6.66421 4.5 6.25 4.5L1 4.5C0.585787 4.5 0.25 4.16421 0.25 3.75Z" fill="#FAFAFA"/>
<path id="Vector 56 (Stroke)" fill-rule="evenodd" clip-rule="evenodd" d="M0.25 8.25C0.25 7.83579 0.585786 7.5 1 7.5L13 7.5C13.4142 7.5 13.75 7.83579 13.75 8.25C13.75 8.66421 13.4142 9 13 9L1 9C0.585787 9 0.25 8.66421 0.25 8.25Z" fill="#FAFAFA"/>
<path id="Vector 57 (Stroke)" fill-rule="evenodd" clip-rule="evenodd" d="M0.25 11.25C0.25 10.8358 0.585786 10.5 1 10.5L13 10.5C13.4142 10.5 13.75 10.8358 13.75 11.25C13.75 11.6642 13.4142 12 13 12L1 12C0.585787 12 0.25 11.6642 0.25 11.25Z" fill="#FAFAFA"/>
</g>
</svg>
