<svg width="16" height="16" viewBox="0 0 16 16" fill="none" xmlns="http://www.w3.org/2000/svg">
<g id="Group 5">
<g id="Vector">
<path fill-rule="evenodd" clip-rule="evenodd" d="M14.0714 11.9286V4.78571H15.5V11.9286C15.5 13.901 13.901 15.5 11.9286 15.5H4.07143V14.0714H11.9286C13.112 14.0714 14.0714 13.112 14.0714 11.9286Z" fill="#DFE2E2"/>
<path fill-rule="evenodd" clip-rule="evenodd" d="M11.2143 1.92857H2.64286C2.24837 1.92857 1.92857 2.24837 1.92857 2.64286V11.2143C1.92857 11.6088 2.24837 11.9286 2.64286 11.9286H11.2143C11.6088 11.9286 11.9286 11.6088 11.9286 11.2143V2.64286C11.9286 2.24837 11.6088 1.92857 11.2143 1.92857ZM2.64286 0.5C1.45939 0.5 0.5 1.45939 0.5 2.64286V11.2143C0.5 12.3978 1.45939 13.3571 2.64286 13.3571H11.2143C12.3978 13.3571 13.3571 12.3978 13.3571 11.2143V2.64286C13.3571 1.45939 12.3978 0.5 11.2143 0.5H2.64286Z" fill="#DFE2E2"/>
</g>
<path id="Vector (Stroke)" fill-rule="evenodd" clip-rule="evenodd" d="M2.79492 8.35718C2.79492 8.04652 3.04676 7.79468 3.35742 7.79468H10.5003C10.8109 7.79468 11.0628 8.04652 11.0628 8.35718C11.0628 8.66784 10.8109 8.91968 10.5003 8.91968H3.35742C3.04676 8.91968 2.79492 8.66784 2.79492 8.35718ZM2.79492 10.5C2.79492 10.1894 3.04676 9.93753 3.35742 9.93753H6.92885C7.23951 9.93753 7.49135 10.1894 7.49135 10.5C7.49135 10.8107 7.23951 11.0625 6.92885 11.0625H3.35742C3.04676 11.0625 2.79492 10.8107 2.79492 10.5Z" fill="#DFE2E2"/>
<g id="C/O">
<path d="M3.51186 6.69465C3.23933 6.53709 3.02788 6.32223 2.87282 6.05007C2.71776 5.77792 2.64258 5.47712 2.64258 5.14289C2.64258 4.81344 2.71776 4.51264 2.87282 4.24049C3.02788 3.96833 3.23933 3.75347 3.51186 3.59591C3.77969 3.43835 4.07571 3.35718 4.40463 3.35718C4.9121 3.35718 5.33029 3.54339 5.66391 3.91581L5.21752 4.35508C5.00138 4.09725 4.72885 3.96833 4.40933 3.96833C4.19788 3.96833 4.00523 4.02085 3.83607 4.11635C3.66222 4.21184 3.52595 4.3503 3.42728 4.52696C3.3286 4.7084 3.28162 4.91371 3.28162 5.14289C3.28162 5.37685 3.3286 5.58216 3.42728 5.75882C3.52595 5.94026 3.66222 6.07872 3.83607 6.17421C4.00523 6.26971 4.19788 6.31745 4.40933 6.31745C4.76174 6.31745 5.05776 6.16944 5.2974 5.86864L5.74849 6.30313C5.57933 6.50844 5.38198 6.666 5.15644 6.77104C4.9309 6.87609 4.67716 6.92861 4.40463 6.92861C4.07571 6.92861 3.77969 6.85221 3.51186 6.69465Z" fill="#DFE2E2"/>
<path d="M6.97018 3.43357H7.57632L6.55668 6.85221H5.95054L6.97018 3.43357Z" fill="#DFE2E2"/>
<path d="M8.55918 6.69465C8.29135 6.53709 8.0799 6.32223 7.92954 6.0453C7.77448 5.77314 7.6993 5.47234 7.6993 5.14289C7.6993 4.81822 7.77448 4.51741 7.92954 4.24049C8.0799 3.96833 8.29135 3.75347 8.55918 3.59591C8.82701 3.43835 9.12774 3.35718 9.45665 3.35718C9.78557 3.35718 10.0816 3.43835 10.3494 3.59591C10.6173 3.75347 10.8287 3.96833 10.9838 4.24049C11.1341 4.51741 11.214 4.81822 11.214 5.14289C11.214 5.47234 11.1341 5.77314 10.9838 6.0453C10.8287 6.32223 10.6173 6.53709 10.3494 6.69465C10.0816 6.85221 9.78557 6.92861 9.45665 6.92861C9.12774 6.92861 8.82701 6.85221 8.55918 6.69465ZM10.0252 6.16944C10.1944 6.07395 10.3306 5.93548 10.4293 5.75405C10.528 5.57738 10.5797 5.37207 10.5797 5.14289C10.5797 4.91371 10.528 4.71317 10.4293 4.53174C10.3306 4.35508 10.1944 4.21661 10.0252 4.11635C9.85135 4.02085 9.6634 3.96833 9.45665 3.96833C9.24991 3.96833 9.05725 4.02085 8.8881 4.11635C8.71894 4.21661 8.58267 4.35508 8.484 4.53174C8.38532 4.71317 8.33834 4.91371 8.33834 5.14289C8.33834 5.37207 8.38532 5.57738 8.484 5.75405C8.58267 5.93548 8.71894 6.07395 8.8881 6.16944C9.05725 6.26971 9.24991 6.31745 9.45665 6.31745C9.6634 6.31745 9.85135 6.26971 10.0252 6.16944Z" fill="#DFE2E2"/>
</g>
</g>
</svg>
