<svg width="18" height="18" viewBox="0 0 18 18" fill="none" xmlns="http://www.w3.org/2000/svg">
<g id="Menu/Dashboard_line">
<path id="Ellipse 33 (Stroke)" fill-rule="evenodd" clip-rule="evenodd" d="M7.125 5.30803C6.4274 5.41665 5.7586 5.67602 5.1666 6.07159C4.36491 6.60726 3.74007 7.36863 3.37109 8.25942C3.00211 9.15021 2.90557 10.1304 3.09367 11.0761C3.28178 12.0217 3.74608 12.8904 4.42786 13.5721C5.10964 14.2539 5.97828 14.7182 6.92394 14.9063C7.86959 15.0944 8.84979 14.9979 9.74058 14.6289C10.6314 14.2599 11.3927 13.6351 11.9284 12.8334C12.324 12.2414 12.5833 11.5726 12.692 10.875H7.875C7.67609 10.875 7.48532 10.796 7.34467 10.6553C7.20402 10.5147 7.125 10.3239 7.125 10.125V5.30803ZM4.33324 4.82438C5.38161 4.12389 6.61415 3.75 7.875 3.75C8.28922 3.75 8.625 4.08579 8.625 4.5V9.375H13.5C13.9142 9.375 14.25 9.71079 14.25 10.125C14.25 11.3859 13.8761 12.6184 13.1756 13.6668C12.4751 14.7151 11.4795 15.5322 10.3146 16.0147C9.14973 16.4972 7.86793 16.6235 6.6313 16.3775C5.39467 16.1315 4.25876 15.5244 3.3672 14.6328C2.47564 13.7412 1.86848 12.6053 1.6225 11.3687C1.37652 10.1321 1.50276 8.85027 1.98527 7.68539C2.46778 6.52051 3.28488 5.52488 4.33324 4.82438Z" fill="#DFE2E2"/>
<path id="Ellipse 34 (Stroke)" fill-rule="evenodd" clip-rule="evenodd" d="M9.375 2.25C9.375 1.83579 9.71079 1.5 10.125 1.5C10.9622 1.5 11.7912 1.66489 12.5646 1.98527C13.3381 2.30564 14.0408 2.77522 14.6328 3.36719C15.2248 3.95917 15.6944 4.66194 16.0147 5.43539C16.3351 6.20884 16.5 7.03782 16.5 7.875C16.5 8.28921 16.1642 8.625 15.75 8.625H10.125C9.71079 8.625 9.375 8.28921 9.375 7.875L9.375 2.25ZM10.875 3.05804V7.125H14.942C14.8825 6.74289 14.7776 6.36834 14.6289 6.00942C14.3839 5.41796 14.0248 4.88054 13.5721 4.42785C13.1195 3.97517 12.582 3.61608 11.9906 3.37109C11.6317 3.22242 11.2571 3.11753 10.875 3.05804Z" fill="#DFE2E2"/>
</g>
</svg>
