<svg width="18" height="18" viewBox="0 0 18 18" fill="none" xmlns="http://www.w3.org/2000/svg">
<path fill-rule="evenodd" clip-rule="evenodd" d="M11.25 9.31415L10.125 9.68915V7.5H12.375V9.68915L11.25 9.31415ZM9 7.5H7.5C6.67157 7.5 6 8.17157 6 9V15C6 15.8284 6.67157 16.5 7.5 16.5H15C15.8284 16.5 16.5 15.8284 16.5 15V9C16.5 8.17157 15.8284 7.5 15 7.5H13.5V11.25L11.25 10.5L9 11.25V7.5Z" fill="#FAFAFA"/>
<path fill-rule="evenodd" clip-rule="evenodd" d="M1.5 3C1.5 2.2402 2.06491 1.61234 2.79764 1.51353L3.61506 3.55709C3.84285 4.12657 4.39442 4.5 5.00778 4.5H7.74223C8.35558 4.5 8.90715 4.12657 9.13494 3.55709L9.95236 1.51353C10.6851 1.61234 11.25 2.2402 11.25 3V6.75H7.5C6.25736 6.75 5.25 7.75736 5.25 9V15H3C2.17157 15 1.5 14.3284 1.5 13.5V3ZM8.34223 1.5H4.40777L5.00777 3L7.74223 3L8.34223 1.5Z" fill="#FAFAFA"/>
</svg>
