<svg width="18" height="18" viewBox="0 0 18 18" fill="none" xmlns="http://www.w3.org/2000/svg">
<g id="Menu/Material_line">
<g id="Vector">
<path fill-rule="evenodd" clip-rule="evenodd" d="M3.96611 8.00061L3.37016 8.35357C2.87471 8.64701 2.87709 9.37145 3.37446 9.66156L8.67417 12.7528C8.90743 12.8889 9.19504 12.8879 9.4274 12.7503L14.6298 9.66902C15.1253 9.37558 15.1229 8.65115 14.6255 8.36104L14.0338 8.0159L9.42734 10.7442C9.19498 10.8818 8.90737 10.8828 8.67411 10.7467L3.96611 8.00061Z" fill="#DFE2E2"/>
<path fill-rule="evenodd" clip-rule="evenodd" d="M3.96611 10.8964L3.37016 11.2494C2.87471 11.5428 2.87709 12.2673 3.37446 12.5574L8.67417 15.6486C8.90743 15.7847 9.19504 15.7837 9.4274 15.6461L14.6298 12.5649C15.1253 12.2714 15.1229 11.547 14.6255 11.2569L14.0338 10.9117L9.42734 13.64C9.19498 13.7776 8.90737 13.7786 8.67411 13.6425L3.96611 10.8964Z" fill="#DFE2E2"/>
<path fill-rule="evenodd" clip-rule="evenodd" d="M5.23823 6.08287L9.04577 8.30376L12.7618 6.10287L8.95424 3.88198L5.23823 6.08287ZM3.37018 5.43514C2.87472 5.72858 2.87711 6.45302 3.37448 6.74313L8.67419 9.83437C8.90745 9.97043 9.19506 9.96946 9.42742 9.83184L14.6298 6.7506C15.1253 6.45715 15.1229 5.73272 14.6255 5.44261L9.32583 2.35137C9.09257 2.21531 8.80496 2.21628 8.5726 2.3539L3.37018 5.43514Z" fill="#DFE2E2"/>
</g>
</g>
</svg>
