<svg width="18" height="18" viewBox="0 0 18 18" fill="none" xmlns="http://www.w3.org/2000/svg">
<g id="Menu/Product_line">
<g id="Vector">
<path fill-rule="evenodd" clip-rule="evenodd" d="M8.66475 1.57918C8.8759 1.47361 9.12443 1.47361 9.33557 1.57918L16.0856 4.95418C16.3397 5.08122 16.5002 5.34092 16.5002 5.625V12.375C16.5002 12.6591 16.3397 12.9188 16.0856 13.0458L9.33557 16.4208C9.12443 16.5264 8.8759 16.5264 8.66475 16.4208L1.91475 13.0458C1.66067 12.9188 1.50016 12.6591 1.50016 12.375V5.625C1.50016 5.34092 1.66067 5.08122 1.91475 4.95418L8.66475 1.57918ZM3.00016 6.08853V11.9115L9.00016 14.9115L15.0002 11.9115V6.08853L9.00016 3.08853L3.00016 6.08853Z" fill="#DFE2E2"/>
<path fill-rule="evenodd" clip-rule="evenodd" d="M13.046 3.60209C13.2312 3.97257 13.0811 4.42308 12.7106 4.60832L7.30221 7.3125L9.00016 8.16147L15.4148 4.95418C15.7852 4.76894 16.2357 4.91911 16.421 5.28959C16.6062 5.66007 16.4561 6.11058 16.0856 6.29582L9.75016 9.46352V15.75C9.75016 16.1642 9.41438 16.5 9.00016 16.5C8.58595 16.5 8.25016 16.1642 8.25016 15.75V9.46352L5.29654 7.98671C5.29165 7.98433 5.28678 7.9819 5.28193 7.97941L1.91475 6.29582C1.54427 6.11058 1.3941 5.66007 1.57934 5.28959C1.76459 4.91911 2.21509 4.76894 2.58557 4.95418L5.62516 6.47397L12.0398 3.26668C12.4102 3.08144 12.8607 3.23161 13.046 3.60209Z" fill="#DFE2E2"/>
</g>
</g>
</svg>
