<svg xmlns="http://www.w3.org/2000/svg" xmlns:xlink="http://www.w3.org/1999/xlink" version="1.1" width="20" height="20" viewBox="0 0 1000 1000" xml:space="preserve">
<desc>Created with Fabric.js 3.5.0</desc>
<defs>
</defs>
<rect x="0" y="0" width="100%" height="100%" fill="rgba(255,255,255,0)"/>
<g transform="matrix(47.9899 0 0 47.9899 499.9997 453.8856)" id="12162">
<path style="stroke: none; stroke-width: 1; stroke-dasharray: none; stroke-linecap: butt; stroke-dashoffset: 0; stroke-linejoin: miter; stroke-miterlimit: 4; is-custom-font: none; font-file-url: none; fill: rgb(7,82,126); fill-rule: evenodd; opacity: 1;" vector-effect="non-scaling-stroke" transform=" translate(-9.0001, -8.5)" d="M 4.00006 11.3246 L 2.77491 15 H 15.2252 L 14.0001 11.3246 V 7 C 14.0001 4.23858 11.7615 2 9.00006 2 C 6.23864 2 4.00006 4.23858 4.00006 7 V 11.3246 Z M 2.00006 11 L 0.438802 15.6838 C 0.222958 16.3313 0.704928 17 1.38749 17 H 16.6126 C 17.2952 17 17.7772 16.3313 17.5613 15.6838 L 16.0001 11 V 7 C 16.0001 3.13401 12.8661 0 9.00006 0 C 5.13407 0 2.00006 3.13401 2.00006 7 V 11 Z" stroke-linecap="round"/>
</g>
<g transform="matrix(1 0 0 1 500 928.9617)" id="975189">
<path style="stroke: none; stroke-width: 1; stroke-dasharray: none; stroke-linecap: butt; stroke-dashoffset: 0; stroke-linejoin: miter; stroke-miterlimit: 4; is-custom-font: none; font-file-url: none; fill: rgb(7,82,126); fill-rule: nonzero; opacity: 1;" vector-effect="non-scaling-stroke" transform=" translate(-79, -78.5002)" d="M 154.666 37.5934 H 3.33409 C 1.49273 37.5934 0 39.0767 0 40.9067 C 0.0749556 84.2303 35.4007 119.332 79 119.407 C 122.615 119.369 157.962 84.2455 158 40.9067 C 158 39.0767 156.507 37.5934 154.666 37.5934 Z" stroke-linecap="round"/>
</g>
</svg>