<svg width="16" height="16" viewBox="0 0 25 25" fill="none" xmlns="http://www.w3.org/2000/svg">
<g id="System/Cancel_line">
<g id="Vector">
<path fill-rule="evenodd" clip-rule="evenodd" d="M7.33337 20.5H17.3334C17.8857 20.5 18.3334 20.0523 18.3334 19.5V9.74264C18.3334 9.47742 18.228 9.22307 18.0405 9.03553L13.7978 4.79289L15.2121 3.37868L19.4547 7.62132C20.0173 8.18393 20.3334 8.94699 20.3334 9.74264V19.5C20.3334 21.1569 18.9902 22.5 17.3334 22.5H7.33337C5.67652 22.5 4.33337 21.1569 4.33337 19.5V5.5C4.33337 3.84315 5.67652 2.5 7.33337 2.5H13.0907C13.8864 2.5 14.6494 2.81607 15.2121 3.37868L13.7978 4.79289C13.6103 4.60536 13.356 4.5 13.0907 4.5H7.33337C6.78109 4.5 6.33337 4.94772 6.33337 5.5V19.5C6.33337 20.0523 6.78109 20.5 7.33337 20.5Z" fill="#FF4D4F"/>
<path fill-rule="evenodd" clip-rule="evenodd" d="M13.9507 3.57612C14.3244 3.42134 14.7545 3.5069 15.0405 3.79289L20.0405 8.79289C20.3265 9.07889 20.412 9.50901 20.2573 9.88268C20.1025 10.2564 19.7378 10.5 19.3334 10.5H14.3334C13.7811 10.5 13.3334 10.0523 13.3334 9.5V4.5C13.3334 4.09554 13.577 3.7309 13.9507 3.57612ZM15.3334 6.32843V8.5H17.5049L15.3334 6.32843Z" fill="#FF4D4F"/>
</g>
<g id="Vector_2">
<path fill-rule="evenodd" clip-rule="evenodd" d="M12.3334 18C13.7141 18 14.8334 16.8807 14.8334 15.5C14.8334 14.1193 13.7141 13 12.3334 13C10.9527 13 9.83337 14.1193 9.83337 15.5C9.83337 16.8807 10.9527 18 12.3334 18ZM12.3334 19.5C14.5425 19.5 16.3334 17.7091 16.3334 15.5C16.3334 13.2909 14.5425 11.5 12.3334 11.5C10.1242 11.5 8.33337 13.2909 8.33337 15.5C8.33337 17.7091 10.1242 19.5 12.3334 19.5Z" fill="#FF4D4F"/>
<path fill-rule="evenodd" clip-rule="evenodd" d="M14.985 12.8483C15.2779 13.1412 15.2779 13.6161 14.985 13.909L10.7424 18.1516C10.4495 18.4445 9.97462 18.4445 9.68173 18.1516C9.38883 17.8588 9.38883 17.3839 9.68173 17.091L13.9244 12.8483C14.2173 12.5555 14.6921 12.5555 14.985 12.8483Z" fill="#FF4D4F"/>
</g>
</g>
</svg>
