<svg width="15" height="16" viewBox="0 0 24 25" fill="none" xmlns="http://www.w3.org/2000/svg">
<g id="System/Delete_line">
<path id="Rectangle 11 (Stroke)" fill-rule="evenodd" clip-rule="evenodd" d="M17.1264 19.5665L18.002 6.43348L19.9975 6.56652L19.122 19.6996C19.0169 21.2755 17.708 22.5 16.1286 22.5H7.87084C6.29145 22.5 4.98255 21.2755 4.87749 19.6996L4.00195 6.56652L5.99752 6.43348L6.87306 19.5665C6.90808 20.0918 7.34438 20.5 7.87084 20.5H16.1286C16.6551 20.5 17.0914 20.0918 17.1264 19.5665Z" fill="#FF4D4F"/>
<path id="Vector 25 (Stroke)" fill-rule="evenodd" clip-rule="evenodd" d="M3 6.5C3 5.94772 3.44772 5.5 4 5.5L20 5.5C20.5523 5.5 21 5.94771 21 6.5C21 7.05228 20.5523 7.5 20 7.5L4 7.5C3.44772 7.5 3 7.05228 3 6.5Z" fill="#FF4D4F"/>
<path id="Rectangle 12 (Stroke)" fill-rule="evenodd" clip-rule="evenodd" d="M7 6C7 4.067 8.567 2.5 10.5 2.5H13.5C15.433 2.5 17 4.067 17 6V6.5H15V6C15 5.17157 14.3284 4.5 13.5 4.5H10.5C9.67157 4.5 9 5.17157 9 6V6.5H7V6Z" fill="#FF4D4F"/>
<path id="Vector 26 (Stroke)" fill-rule="evenodd" clip-rule="evenodd" d="M10 11.5C10.5523 11.5 11 11.9477 11 12.5V16.5C11 17.0523 10.5523 17.5 10 17.5C9.44772 17.5 9 17.0523 9 16.5V12.5C9 11.9477 9.44772 11.5 10 11.5Z" fill="#FF4D4F"/>
<path id="Vector 27 (Stroke)" fill-rule="evenodd" clip-rule="evenodd" d="M14 11.5C14.5523 11.5 15 11.9477 15 12.5V16.5C15 17.0523 14.5523 17.5 14 17.5C13.4477 17.5 13 17.0523 13 16.5V12.5C13 11.9477 13.4477 11.5 14 11.5Z" fill="#FF4D4F"/>
</g>
</svg>
