<svg width="15" height="16" viewBox="0 0 20 21" fill="none" xmlns="http://www.w3.org/2000/svg">
<g id="Group 12">
<path id="Rectangle 14 (Stroke)" fill-rule="evenodd" clip-rule="evenodd" d="M16.3639 4.76777L15.6568 4.06067C15.2663 3.67014 14.6331 3.67014 14.2426 4.06067L13.5355 4.76777L15.6568 6.88909L16.3639 6.18199C16.7544 5.79146 16.7544 5.1583 16.3639 4.76777ZM17.071 2.64645C15.8995 1.47488 14 1.47488 12.8284 2.64645L10.7071 4.76777L15.6568 9.71752L17.7781 7.5962C18.9497 6.42463 18.9497 4.52513 17.7781 3.35356L17.071 2.64645Z" fill="#07527E"/>
<path id="Rectangle 16 (Stroke)" fill-rule="evenodd" clip-rule="evenodd" d="M12.1176 6.17829L4.5 13.7561L4.5 15.9246L6.6685 15.9246L14.2463 8.307L12.1176 6.17829ZM17.0711 8.30331L12.1213 3.35356L2.5 12.9246V17.9246L7.5 17.9246L17.0711 8.30331Z" fill="#07527E"/>
</g>
</svg>
