<svg width="15" height="16" viewBox="0 0 20 21" fill="none" xmlns="http://www.w3.org/2000/svg">
<g id="Group 12">
<path id="Rectangle 14 (Stroke)" fill-rule="evenodd" clip-rule="evenodd" d="M16.3634 4.76777L15.6563 4.06067C15.2658 3.67014 14.6326 3.67014 14.2421 4.06067L13.535 4.76777L15.6563 6.88909L16.3634 6.18199C16.754 5.79146 16.754 5.1583 16.3634 4.76777ZM17.0705 2.64645C15.899 1.47488 13.9995 1.47488 12.8279 2.64645L10.7066 4.76777L15.6563 9.71752L17.7776 7.5962C18.9492 6.42463 18.9492 4.52513 17.7776 3.35356L17.0705 2.64645Z" fill="#FFA940"/>
<path id="Rectangle 16 (Stroke)" fill-rule="evenodd" clip-rule="evenodd" d="M12.1171 6.17829L4.49951 13.7561L4.49951 15.9246L6.66802 15.9246L14.2459 8.307L12.1171 6.17829ZM17.0706 8.30331L12.1208 3.35356L2.49951 12.9246V17.9246L7.49951 17.9246L17.0706 8.30331Z" fill="#FFA940"/>
</g>
</svg>
