<svg width="16" height="16" viewBox="0 0 25 25" fill="none" xmlns="http://www.w3.org/2000/svg">
<g id="System/History_line">
<path id="Ellipse 18 (Stroke)" fill-rule="evenodd" clip-rule="evenodd" d="M11.664 2.80169C14.0636 2.5536 16.47 3.20394 18.418 4.62698C20.366 6.05003 21.7173 8.14473 22.2106 10.5062C22.7039 12.8676 22.3043 15.3281 21.0889 17.412C20.9522 17.6463 20.6997 17.7886 20.4285 17.784C20.1573 17.7795 19.9097 17.6289 19.7809 17.3901L18.3065 14.656C18.1099 14.2914 18.2461 13.8365 18.6106 13.6399C18.9752 13.4433 19.4302 13.5794 19.6268 13.944L20.3991 15.3762C20.9382 13.9268 21.0624 12.3452 20.7423 10.8129C20.3249 8.81477 19.1815 7.04233 17.5332 5.83822C15.8848 4.6341 13.8487 4.08382 11.8182 4.29374C9.78775 4.50366 7.90722 5.45888 6.54012 6.97475C5.17302 8.49062 4.41644 10.4595 4.41663 12.5008C4.41682 14.542 5.17376 16.5108 6.54115 18.0264C7.90853 19.542 9.78924 20.4969 11.8197 20.7064C13.8502 20.916 15.8863 20.3653 17.5344 19.1609C17.8688 18.9165 18.3381 18.9895 18.5825 19.3239C18.8269 19.6583 18.7539 20.1275 18.4195 20.3719C16.4717 21.7954 14.0654 22.4461 11.6658 22.1985C9.26608 21.9508 7.04342 20.8224 5.42742 19.0312C3.81142 17.24 2.91685 14.9133 2.91663 12.5009C2.9164 10.0885 3.81054 7.76164 5.4262 5.97016C7.04187 4.17868 9.26432 3.04978 11.664 2.80169Z" fill="#40A9FF"/>
<path id="Vector 43 (Stroke)" fill-rule="evenodd" clip-rule="evenodd" d="M12.6666 7.75C13.0808 7.75 13.4166 8.08579 13.4166 8.5V12.25L16.2666 16.05C16.5152 16.3814 16.448 16.8515 16.1166 17.1C15.7853 17.3485 15.3152 17.2814 15.0666 16.95L12.0666 12.95C11.9693 12.8202 11.9166 12.6623 11.9166 12.5V8.5C11.9166 8.08579 12.2524 7.75 12.6666 7.75Z" fill="#40A9FF"/>
</g>
</svg>
