<svg width="16" height="16" viewBox="0 0 24 25" fill="none" xmlns="http://www.w3.org/2000/svg">
<g id="System/Load_line">
<g id="Vector">
<path fill-rule="evenodd" clip-rule="evenodd" d="M12.7071 2.79289C13.0976 3.18342 13.0976 3.81658 12.7071 4.20711L10.4142 6.5L12.7071 8.79289C13.0976 9.18342 13.0976 9.81658 12.7071 10.2071C12.3166 10.5976 11.6834 10.5976 11.2929 10.2071L8.29286 7.20711C7.90234 6.81658 7.90234 6.18342 8.29286 5.79289L11.2929 2.79289C11.6834 2.40237 12.3166 2.40237 12.7071 2.79289Z" fill="#40A9FF"/>
<path fill-rule="evenodd" clip-rule="evenodd" d="M11.5017 7.52072C11.5489 7.52312 11.5963 7.52294 11.6439 7.52011C12.4036 7.47488 13.1682 7.57466 13.896 7.81749C14.9429 8.16682 15.873 8.79859 16.5836 9.64309C17.2942 10.4876 17.7577 11.512 17.9229 12.6033C18.0882 13.6945 17.9487 14.8102 17.5199 15.8272C17.0912 16.8442 16.3898 17.723 15.4931 18.3666C14.5965 19.0102 13.5395 19.3935 12.4388 19.4744C11.338 19.5552 10.2364 19.3304 9.25534 18.8247C8.57339 18.4732 7.96816 17.9955 7.47012 17.42C7.43894 17.384 7.40591 17.3498 7.3713 17.3178C7.36548 17.3124 7.35961 17.3071 7.3537 17.3018C7.33145 17.2819 7.30857 17.2629 7.28514 17.2447C6.92086 16.9621 6.42136 16.8867 6.0204 17.1302C5.54605 17.4181 5.39032 18.041 5.73545 18.4755C6.43835 19.3605 7.32332 20.0896 8.33465 20.6109C9.64477 21.2862 11.116 21.5865 12.586 21.4785C14.0559 21.3705 15.4675 20.8586 16.6649 19.9991C17.8623 19.1396 18.799 17.966 19.3716 16.6079C19.9442 15.2497 20.1305 13.7598 19.9098 12.3024C19.6892 10.8451 19.0702 9.47708 18.1213 8.34928C17.1723 7.22149 15.9302 6.37778 14.532 5.91127C13.4527 5.55117 12.3129 5.42662 11.1885 5.54125C10.6365 5.59754 10.2993 6.14388 10.4243 6.68454C10.5299 7.14155 10.9326 7.44655 11.3893 7.51006C11.4186 7.51414 11.4482 7.51723 11.478 7.51929C11.4859 7.51984 11.4938 7.52032 11.5017 7.52072Z" fill="#40A9FF"/>
</g>
</g>
</svg>
