<svg width="16" height="16" viewBox="0 0 16 21" fill="none" xmlns="http://www.w3.org/2000/svg">
<g id="Group 8">
<path id="Rectangle 4 (Stroke)" fill-rule="evenodd" clip-rule="evenodd" d="M3 5.5C3 2.73858 5.23858 0.5 8 0.5C10.7614 0.5 13 2.73858 13 5.5V8.5H11V5.5C11 3.84315 9.65685 2.5 8 2.5C6.34315 2.5 5 3.84315 5 5.5H3Z" fill="#389E0D"/>
<g id="Vector">
<path fill-rule="evenodd" clip-rule="evenodd" d="M13 8.5H3C2.44772 8.5 2 8.94772 2 9.5V17.5C2 18.0523 2.44772 18.5 3 18.5H13C13.5523 18.5 14 18.0523 14 17.5V9.5C14 8.94772 13.5523 8.5 13 8.5ZM3 6.5C1.34315 6.5 0 7.84315 0 9.5V17.5C0 19.1569 1.34315 20.5 3 20.5H13C14.6569 20.5 16 19.1569 16 17.5V9.5C16 7.84315 14.6569 6.5 13 6.5H3Z" fill="#389E0D"/>
<path d="M10 13.5C10 14.6046 9.10457 15.5 8 15.5C6.89543 15.5 6 14.6046 6 13.5C6 12.3954 6.89543 11.5 8 11.5C9.10457 11.5 10 12.3954 10 13.5Z" fill="#389E0D"/>
</g>
</g>
</svg>
