<svg width="32" height="32" viewBox="0 0 32 32" fill="none" xmlns="http://www.w3.org/2000/svg">
<g id="System/Menu_show_line">
<path id="Vector 59 (Stroke)" fill-rule="evenodd" clip-rule="evenodd" d="M3.33325 6.66663C3.33325 5.56206 4.22868 4.66663 5.33325 4.66663H26.6666C27.7712 4.66663 28.6666 5.56206 28.6666 6.66663C28.6666 7.7712 27.7712 8.66663 26.6666 8.66663H5.33325C4.22868 8.66663 3.33325 7.7712 3.33325 6.66663Z" fill="#07527E"/>
<path id="Vector 60 (Stroke)" fill-rule="evenodd" clip-rule="evenodd" d="M3.33325 16C3.33325 14.8954 4.22868 14 5.33325 14H26.6666C27.7712 14 28.6666 14.8954 28.6666 16C28.6666 17.1046 27.7712 18 26.6666 18H5.33325C4.22868 18 3.33325 17.1046 3.33325 16Z" fill="#07527E"/>
<path id="Vector 61 (Stroke)" fill-rule="evenodd" clip-rule="evenodd" d="M3.33325 25.3334C3.33325 24.2288 4.22868 23.3334 5.33325 23.3334H26.6666C27.7712 23.3334 28.6666 24.2288 28.6666 25.3334C28.6666 26.4379 27.7712 27.3334 26.6666 27.3334H5.33325C4.22868 27.3334 3.33325 26.4379 3.33325 25.3334Z" fill="#07527E"/>
</g>
</svg>
