<svg width="32" height="32" viewBox="0 0 32 32" fill="none" xmlns="http://www.w3.org/2000/svg">
<g id="System/Menu_hide_line">
<path id="Vector 59 (Stroke)" fill-rule="evenodd" clip-rule="evenodd" d="M3.33325 6.66667C3.33325 5.5621 4.22868 4.66667 5.33325 4.66667H26.6666C27.7712 4.66667 28.6666 5.5621 28.6666 6.66667C28.6666 7.77124 27.7712 8.66667 26.6666 8.66667H5.33325C4.22868 8.66667 3.33325 7.77124 3.33325 6.66667Z" fill="#07527E"/>
<path id="Vector 60 (Stroke)" fill-rule="evenodd" clip-rule="evenodd" d="M3.33325 16C3.33325 14.8954 4.22868 14 5.33325 14H19.9999C21.1045 14 21.9999 14.8954 21.9999 16C21.9999 17.1046 21.1045 18 19.9999 18H5.33325C4.22868 18 3.33325 17.1046 3.33325 16Z" fill="#07527E"/>
<path id="Vector 61 (Stroke)" fill-rule="evenodd" clip-rule="evenodd" d="M3.33325 25.3333C3.33325 24.2288 4.22868 23.3333 5.33325 23.3333H14.6666C15.7712 23.3333 16.6666 24.2288 16.6666 25.3333C16.6666 26.4379 15.7712 27.3333 14.6666 27.3333H5.33325C4.22868 27.3333 3.33325 26.4379 3.33325 25.3333Z" fill="#07527E"/>
</g>
</svg>
