<svg width="20" height="20" viewBox="0 0 24 24" fill="none" xmlns="http://www.w3.org/2000/svg">
<path fill-rule="evenodd" clip-rule="evenodd" d="M13 18C14.6569 18 16 16.6569 16 15H14C14 15.5523 13.5523 16 13 16H7C6.44772 16 6 15.5523 6 15V5C6 4.44772 6.44772 4 7 4H8.97515L9 8C9 8.55228 9.44772 9 10 9H14V10H16V7.18634C16 6.42416 15.7099 5.69056 15.1886 5.13452L13.1389 2.94818C12.5718 2.34322 11.7795 2 10.9503 2H7C5.34315 2 4 3.34315 4 5V15C4 16.6569 5.34315 18 7 18H13ZM14 7.18634C14 6.93228 13.9033 6.68775 13.7295 6.5024L11.6798 4.31606C11.4908 4.11441 11.2267 4 10.9503 4V7.18634H14Z" fill="#07527E"/>
<path d="M20 15.5C20 13.2909 18.2091 11.5 16 11.5H13L13.3 11.1C13.6314 10.6582 13.5418 10.0314 13.1 9.7C12.6582 9.36863 12.0314 9.45817 11.7 9.9L10.2 11.9C9.93333 12.2556 9.93333 12.7444 10.2 13.1L11.7 15.1C12.0314 15.5418 12.6582 15.6314 13.1 15.3C13.5418 14.9686 13.6314 14.3418 13.3 13.9L13 13.5H16C17.1046 13.5 18 14.3954 18 15.5V18C18 19.1046 17.1046 20 16 20H11C10.4477 20 10 19.5523 10 19H8C8 20.6569 9.34315 22 11 22H16C18.2091 22 20 20.2091 20 18V15.5Z" fill="#07527E"/>
</svg>
