<svg width="40" height="40" viewBox="0 0 40 40" fill="none" xmlns="http://www.w3.org/2000/svg">
<g id="Asset 13" clip-path="url(#clip0_2200_14952)">
<g id="Layer_1-2">
<g id="Group">
<path id="Vector" d="M40 20C40 21.8597 39.746 23.6603 39.272 25.3678C38.8243 26.9772 38.1806 28.505 37.3683 29.9233C37.1558 30.2942 36.932 30.6576 36.6968 31.0135C35.9424 32.1552 35.0736 33.2151 34.1066 34.177L34.1041 34.1796C33.703 34.5794 33.2843 34.9604 32.8518 35.3225C32.7889 35.3778 32.7248 35.4307 32.6606 35.4835C32.1288 35.9185 31.5742 36.3272 30.9984 36.7069C27.9756 38.7024 24.3782 39.8969 20.5067 39.9925C20.4765 39.995 20.4451 39.995 20.4137 39.995C20.3835 39.9962 20.3521 39.9975 20.3206 39.9962C20.215 39.9987 20.1081 40 20.0013 40C19.8944 40 19.785 40 19.6781 39.9975H19.6517C19.6215 39.9975 19.5901 39.9975 19.5599 39.995C19.4744 39.995 19.3889 39.9912 19.3021 39.9874C15.3439 39.8516 11.6786 38.5666 8.62819 36.4529C8.6219 36.4491 8.61562 36.4441 8.60933 36.4403C8.4597 36.336 8.31007 36.2304 8.16296 36.121C7.53678 35.6608 6.93826 35.1641 6.36992 34.6347C6.36112 34.6259 6.35232 34.6184 6.34352 34.6096C6.31711 34.5857 6.29071 34.5605 6.26556 34.5354C5.149 33.4817 4.15441 32.2998 3.30441 31.0147C3.24657 30.9267 3.18999 30.8399 3.13341 30.7507C2.29976 29.4455 1.61449 28.0372 1.09896 26.5497C0.386018 24.4977 0 22.2947 0 20C0 8.95511 8.95511 0 20 0C31.0449 0 40 8.95511 40 20Z" fill="#C6E4F6"/>
<g id="Group_2">
<path id="Vector_2" d="M20.0001 12.0383C23.0933 12.0383 25.6018 14.5468 25.6018 17.64C25.6018 20.7332 14.3984 20.7332 14.3984 17.64C14.3984 14.5468 16.9069 12.0383 20.0001 12.0383Z" fill="white"/>
<path id="Vector_3" d="M20.0001 12.0383C16.9069 12.0383 14.3984 14.5468 14.3984 17.64H20.0001V12.0383Z" fill="#EAEAEA"/>
<path id="Vector_4" d="M19.9994 27.3206C17.7047 27.3206 15.8438 25.4596 15.8438 23.1649C15.8438 20.8702 24.1538 20.8702 24.1538 23.1649C24.1538 25.4596 22.2929 27.3206 19.9982 27.3206H19.9994Z" fill="#302D2D"/>
<path id="Vector_5" d="M20 27.3207C22.2947 27.3207 24.1557 25.4598 24.1557 23.165H20V27.3207Z" fill="#3E3A39"/>
<path id="Vector_6" d="M25.5376 24.382H14.4474C12.1502 23.4943 10.2465 22.0672 8.7879 20.2766C8.4132 19.8164 8.65462 18.9702 9.15883 18.9702H30.8412C31.3454 18.9702 31.5856 19.8164 31.2121 20.2766C29.7536 22.0672 27.8348 23.4956 25.5376 24.382Z" fill="#C93F09"/>
<path id="Vector_7" d="M31.2121 20.2766C29.7536 22.0672 27.8348 23.4956 25.5375 24.382H20V18.9702H30.8412C31.3454 18.9702 31.5856 19.8164 31.2121 20.2766Z" fill="#EC4A0A"/>
<path id="Vector_8" d="M16.8742 16.7146H23.1234C25.735 16.7146 28.3076 17.078 30.4112 17.8035C31.0852 18.0361 31.6787 18.2914 32.1753 18.5655H7.82227C8.31893 18.2914 8.91242 18.0361 9.58638 17.8035C11.69 17.078 14.2626 16.7146 16.8742 16.7146Z" fill="#D77131"/>
<path id="Vector_9" d="M34.0311 20.259L6.10582 20.259C5.63179 20.259 5.24828 19.8743 5.24828 19.4015C5.24828 18.94 5.62298 18.5653 6.08444 18.5653L34.0525 18.5653C34.514 18.5653 34.8887 18.94 34.8887 19.4015C34.8887 19.8755 34.5039 20.259 34.0311 20.259Z" fill="#3E3A39"/>
<path id="Vector_10" d="M20 18.5655V16.7146H23.1246C25.7362 16.7146 28.3088 17.078 30.4124 17.8035C31.0864 18.0361 31.6799 18.2914 32.1765 18.5655H20Z" fill="#FD853A"/>
<path id="Vector_11" d="M19.9997 18.5655V20.2592H6.10181C5.63029 20.2592 5.24805 19.8769 5.24805 19.4054V19.4004C5.24805 18.9389 5.62275 18.5642 6.08421 18.5642H19.9997V18.5655Z" fill="#302D2D"/>
<path id="Vector_12" d="M22.221 19.8995C22.4897 19.8995 22.7076 19.6816 22.7076 19.4129C22.7076 19.1441 22.4897 18.9263 22.221 18.9263C21.9522 18.9263 21.7344 19.1441 21.7344 19.4129C21.7344 19.6816 21.9522 19.8995 22.221 19.8995Z" fill="white"/>
<path id="Vector_13" d="M26.8557 19.8995C27.1245 19.8995 27.3424 19.6816 27.3424 19.4129C27.3424 19.1441 27.1245 18.9263 26.8557 18.9263C26.587 18.9263 26.3691 19.1441 26.3691 19.4129C26.3691 19.6816 26.587 19.8995 26.8557 19.8995Z" fill="white"/>
<path id="Vector_14" d="M31.4944 19.8995C31.7632 19.8995 31.981 19.6816 31.981 19.4129C31.981 19.1441 31.7632 18.9263 31.4944 18.9263C31.2257 18.9263 31.0078 19.1441 31.0078 19.4129C31.0078 19.6816 31.2257 19.8995 31.4944 19.8995Z" fill="white"/>
<path id="Vector_15" d="M8.30887 19.8995C8.57762 19.8995 8.79548 19.6816 8.79548 19.4129C8.79548 19.1441 8.57762 18.9263 8.30887 18.9263C8.04013 18.9263 7.82227 19.1441 7.82227 19.4129C7.82227 19.6816 8.04013 19.8995 8.30887 19.8995Z" fill="#EAEAEA"/>
<path id="Vector_16" d="M12.9475 19.8995C13.2163 19.8995 13.4342 19.6816 13.4342 19.4129C13.4342 19.1441 13.2163 18.9263 12.9475 18.9263C12.6788 18.9263 12.4609 19.1441 12.4609 19.4129C12.4609 19.6816 12.6788 19.8995 12.9475 19.8995Z" fill="#EAEAEA"/>
<path id="Vector_17" d="M17.5823 19.8995C17.8511 19.8995 18.0689 19.6816 18.0689 19.4129C18.0689 19.1441 17.8511 18.9263 17.5823 18.9263C17.3136 18.9263 17.0957 19.1441 17.0957 19.4129C17.0957 19.6816 17.3136 19.8995 17.5823 19.8995Z" fill="#EAEAEA"/>
</g>
</g>
</g>
</g>
<defs>
<clipPath id="clip0_2200_14952">
<rect width="40" height="40" fill="white"/>
</clipPath>
</defs>
</svg>
